<svg xmlns="http://www.w3.org/2000/svg" viewBox="0 0 1108.33 313.21"><defs><style>.cls-1{fill:#000;}</style></defs><title>OTL Logo White</title><g id="Layer_2" data-name="Layer 2"><g id="Layer_1-2" data-name="Layer 1"><path class="cls-1" d="M695.63,22.2c0,10-6.08,22.43-15.27,27.83a26.68,26.68,0,0,1-13.12,3.7c-4.3,0-9-1.26-12.23-4.44-2.15-2.07-5-6.29-5-13.32,0-8.14,4.74-20.06,13.42-26.72A27.18,27.18,0,0,1,679.33,4C688.89,4,695.63,11.4,695.63,22.2Zm-25.5-11.47C663.32,17.39,659,30.49,659,40.56c0,5.7,2.22,11,8.3,11,2.89,0,5.78-1.41,8.89-4.66,4.45-4.59,10.53-17.54,10.53-28.35,0-6.88-2.15-12.43-7.41-12.43C675.84,6.07,673,7.92,670.13,10.73Z"/><path class="cls-1" d="M737.81,4.81a.65.65,0,0,0,.81.07A19.23,19.23,0,0,1,751.08,0c7.41,0,8.52,4.29,8.52,5.55a4.72,4.72,0,0,1-4.6,4.51c-1,0-2.37-.89-2.37-2.07-.15-3.48-1-5.62-3.71-5.62-2.82,0-5.19,2.22-7.26,5.92a61.66,61.66,0,0,0-5.11,13.54c-.15.37,0,.89.22.89,1,0,9-.15,11.86-.37a56.71,56.71,0,0,0,5.63-.74c.52-.07.89.52.59,1.26-2.15,4.88-6.89,18.06-8.3,22.8-.22.81.15,1.33.52,1.33.67,0,3.56-1.63,6.15-4.14a1.93,1.93,0,0,1,1.48-.67c.82,0-.07,1.92-.74,2.81-3,4.15-10.52,8.59-13.71,8.59a2.85,2.85,0,0,1-2.59-2.66,8.32,8.32,0,0,1,.67-3c1.33-3.4,7.56-20.06,8.08-21.61.22-.81,0-1-.67-1-3.85,0-9,.22-9.78.3a1.3,1.3,0,0,0-1,.89c-3.19,11.18-6.6,22.72-8.45,28.49a21.68,21.68,0,0,1-9,11.69c-2.74,1.7-7.93,3.63-10.53,3.63a9.94,9.94,0,0,1-7-2.66c-.07-.07-.52-.22-.67,0-2.15,2-6.89,4.74-9.93,4.74-4.67,0-5.93-2.52-5.86-3.7a5.62,5.62,0,0,1,2.37-4c.82-.44,1.78-.59,2-.37,2.08,2.07,4.3,4.07,5.86,4.07,1.78,0,2.82-1.7,4-5.11s6.82-22.43,10.75-36.41c.15-.44-.15-.59-.52-.59l-4.82.15c-.52,0-.59-.22-.59-.52a2.73,2.73,0,0,1,1.63-2.22c1.19-.15,3.56-.3,4.6-.37a.78.78,0,0,0,.74-.59c2.15-5.62,5-12.8,11.41-17.39,2.3-1.55,6.6-3.18,9.34-3.18C734,2.15,736.25,3.26,737.81,4.81ZM718,58.77c2.52-8.14,5.48-18.65,9.49-32.42a.51.51,0,0,0-.44-.74L716.68,26a1,1,0,0,0-.81.52c-2.37,8.51-5.78,19.83-7.71,26.87a39,39,0,0,1-4,9.4,1,1,0,0,0,.15,1.11,9.21,9.21,0,0,0,6.67,3C713.27,66.91,715.87,65.57,718,58.77Zm3.11-47.51a78.92,78.92,0,0,0-4,11.25c-.08.22,0,.52.44.52l10.3-.22c.44,0,.74-.3,1-.81a63.65,63.65,0,0,1,5.26-11.69,1.93,1.93,0,0,0,.22-1.18c-1-2.74-3.78-4.51-5.78-4.51C725.65,4.59,723.13,7,721.13,11.25Z"/><path class="cls-1" d="M784.8,22.8a2,2,0,0,1,1.33,1.7c0,2.74-2.22,5-3.19,5a1.79,1.79,0,0,1-1.33-.81c-1.11-2.29-1.85-4.22-3.71-4.22-1.11,0-2.67,1.26-4.6,5.11s-3.71,9.18-3.71,13.17c0,4.74,2,5.18,3.34,5.18,2,0,4.6-.89,7.63-3.77.59-.59,1.41-.52,1.41,0a5.37,5.37,0,0,1-1,2.37c-3.34,4.07-7.56,6.51-12.38,6.51-5.19,0-6.82-5-6.82-8.07A27.65,27.65,0,0,1,765,33.53c2.67-5,5.63-8.29,10.23-10.21a20.57,20.57,0,0,1,6.15-1.26A7.5,7.5,0,0,1,784.8,22.8Z"/><path class="cls-1" d="M814.08,27.24c0,3.48-3,6.07-6.67,7.84a55.11,55.11,0,0,1-9.56,3.11c-.59.15-.82.52-1,1.18a15.13,15.13,0,0,0-.67,4.44c0,2.89,1.71,4.37,3.48,4.37,2.08,0,4.74-1,7.86-3.7.67-.52,1.26-1.11,1.78-1.11a.56.56,0,0,1,.52.52,4.85,4.85,0,0,1-1,2.22c-3,3.77-8.23,7.18-13.71,7.18-2.37,0-6.82-3.18-6.82-8.59,0-5.18,3.56-12.43,7.56-16.65,3.78-3.77,8.52-5.92,11.93-5.92C812.52,22.13,814.08,25.09,814.08,27.24Zm-16.16,8.14c-.07.37,0,.89.44.74,6.52-2.22,9.86-7.18,9.86-9.84,0-1.41-.59-2.07-1.33-2.07C803.62,24.2,799.4,30.2,797.92,35.38Z"/><path class="cls-1" d="M862.48,31.38a23.32,23.32,0,0,1-13.12,20.5,18.48,18.48,0,0,1-6.89,1.55c-3.78,0-8.3-2.81-8.3-9,0-4.37,3.11-12.88,8.82-17.84a17.23,17.23,0,0,1,10.9-4.44C859.59,22.13,862.48,27.38,862.48,31.38Zm-13.27-4.44c-3.71,4.44-7.56,13.62-7.56,21.24,0,1.7,1,3.11,2.44,3.11,1,0,1.63-.52,3.11-2.07,3.19-3.33,8.3-15.39,8.3-21.91,0-1.63-.74-3-2.37-3C852.1,24.28,850.69,25.16,849.21,26.94Z"/><path class="cls-1" d="M891,22.87c.37,0,.59.52.59.74,0,.44-.81,2-1.78,2-1.71,0-3.86.22-6,.22-.3,0-.59.37-.89.81-2.74,9.1-6.45,22.35-8.82,31.16-2,7.11-5.86,9.7-9.12,11.84a18.56,18.56,0,0,1-8.08,2.74c-4.15,0-6-2.07-6-3.92,0-1.41,2.08-3.48,3.34-3.92.44-.15,1.41-.22,1.7.15,1.93,2.74,3.63,4.29,5.34,4.29s3.19-2.07,5.12-9.62c2.3-8.36,5.26-19.76,9.19-32.79.07-.15-.3-.59-.67-.59l-4.15.15c-.52,0-.67-.59-.67-.89.07-.81.81-1.85,1.63-1.85,1.33,0,3.56-.15,4.6-.15a1.71,1.71,0,0,0,.52-.52c2.52-7.62,7.26-16.13,11.64-19.24,3-2.22,5.93-3.48,8.75-3.48,4.52,0,6.15,2.52,6.15,4.89a5.19,5.19,0,0,1-4.67,5.25,1,1,0,0,1-.89-1c0-.37.07-1.33.07-1.63.08-3.26-.81-5.18-2.67-5.18-1.33,0-3,.67-5.34,5.11a91.18,91.18,0,0,0-5.56,14.95c-.08.3.22.74.37.74Z"/><path class="cls-1" d="M646.32,83.52h31.43V92H666.69v34.26h-9.32V92H646.32Z"/><path class="cls-1" d="M690.27,83.52h26.61V92H699.59v8.15h15.94v8.47H699.59v9.17h17.35v8.47H690.27Z"/><path class="cls-1" d="M765.84,126.25h-9.51l-2.7-8.47H740.45l-2.57,8.47h-9.51l14-42.73h9.38Zm-22.62-16.68h7.71l-3.86-14.24Z"/><path class="cls-1" d="M806.12,111.82v7.38a7,7,0,0,1-7.07,7.06H784.34a7,7,0,0,1-7.07-7.06V90.58a7,7,0,0,1,7.07-7.06h14.72a7,7,0,0,1,7.07,7.06V97L797,98.54v-5.9a.61.61,0,0,0-.64-.64h-9.13a.61.61,0,0,0-.64.64v24.51a.61.61,0,0,0,.64.64h9.13a.61.61,0,0,0,.64-.64v-6.86Z"/><path class="cls-1" d="M842.23,108.8H829.89v17.45h-9.32V83.52h9.32v16.81h12.34V83.52h9.32v42.73h-9.32Z"/><path class="cls-1" d="M876.29,126.25H867V83.52h9.32Z"/><path class="cls-1" d="M924,126.25h-9L900.7,101.36v24.89h-9V83.52h9l14.27,25v-25h9Z"/><path class="cls-1" d="M952.68,103H968.3v16.23a7,7,0,0,1-7.07,7.06h-15.1a7,7,0,0,1-7.07-7.06V90.58a7,7,0,0,1,7.07-7.06h15a7,7,0,0,1,7.07,7.06v5.2l-9.13,1.54V92.63a.61.61,0,0,0-.64-.64H949a.61.61,0,0,0-.64.64v24.51a.61.61,0,0,0,.64.64h9.51a.61.61,0,0,0,.64-.64V111h-6.49Z"/><path class="cls-1" d="M676.55,166.75c.09.53.62.44.89.18,4.18-3.73,10.05-9.95,10.05-16.52a9.66,9.66,0,0,0-1.25-4.44,2.3,2.3,0,0,1-.09-2,6,6,0,0,1,3.65-2.22c2.49,0,3.83,2.4,3.83,5.59,0,8.7-8.45,16.34-15.39,22.56-4.63,4.08-16.19,11.28-18.15,12.7a1.78,1.78,0,0,0-.62,1.51c.36,5.95,6,13.59,14.59,13.59a19.48,19.48,0,0,0,12.1-3.82c6.94-5.06,11.47-13.5,11.65-18.92a3.83,3.83,0,0,0-.44-1.87c-.18-.44-2.31-1.78-5.16-1.78-4.62,0-4.45,3.29-4.45,4.71a10.37,10.37,0,0,0,1.33,4.71,1.76,1.76,0,0,1-.09,1.51,4.35,4.35,0,0,1-3,1.15c-2.93,0-4.8-2-4.8-4.09,0-3.11,2.22-5.86,5.25-8.7s7-4.71,10.23-4.71c6.23,0,11.3,4.71,12.54,5.95a3.82,3.82,0,0,0,2.4,1.42c.53,0,.8-.71.8-1.69,0-2-1.69-5.59-2.4-6.66-.44-.62-.36-1.6,1.16-1.6,3.73,0,5.78,4.08,5.78,6.48a5.8,5.8,0,0,1-2.58,4.62c-1.16.71-4.63,2.84-6.14,4-.71.36-1.33.36-1.69-.09a24.68,24.68,0,0,0-4.71-3.82c-.36-.18-.8.62-.8,1.07a26.73,26.73,0,0,1-.44,2.93c-1.16,6.13-4.63,13.23-8,17.05-6,6.75-14.23,10.66-21.35,10.66-16.9,0-20.19-13-20.19-20.6,0-5.86,1.69-13.23,9-20.16,2-2,7.38-6,10.32-6C672.37,159.47,675.75,161.33,676.55,166.75Zm-16.81,12.43c2.31-1.33,8.54-5.33,9.25-5.95.44-.44.71-1.24.71-2.84s-1.6-5.33-4.27-5.33c-3.56,0-6.67,6.57-6.4,13.68C659,179.1,659.39,179.45,659.74,179.18Z"/><path class="cls-1" d="M743.05,150.12h9.32v34.26h17v8.47H743.05Z"/><path class="cls-1" d="M782.25,150.12h26.61v8.47H791.57v8.15h15.94v8.47H791.57v9.17h17.35v8.47H782.25Z"/><path class="cls-1" d="M857.82,192.85H848.3l-2.7-8.47H832.43l-2.57,8.47h-9.51l14-42.73h9.38Zm-22.62-16.68h7.71L839,161.93Z"/><path class="cls-1" d="M885.57,177.13h-6.36v15.72h-9.32V150.12h23.78a7,7,0,0,1,7.07,7.06v12.9a7.1,7.1,0,0,1-5.08,6.8l7.58,16H893Zm-6.36-18.54v10.07h11.63a.61.61,0,0,0,.64-.64v-8.79a.61.61,0,0,0-.64-.64Z"/><path class="cls-1" d="M948.35,192.85h-9L925.08,168v24.89h-9V150.12h9l14.27,25v-25h9Z"/><path class="cls-1" d="M973.08,192.85h-9.32V150.12h9.32Z"/><path class="cls-1" d="M1020.76,192.85h-9L997.5,168v24.89h-9V150.12h9l14.27,25v-25h9Z"/><path class="cls-1" d="M1049.48,169.56h15.62v16.23a7,7,0,0,1-7.07,7.06h-15.1a7,7,0,0,1-7.07-7.06V157.18a7,7,0,0,1,7.07-7.06h15a7,7,0,0,1,7.07,7.06v5.2l-9.13,1.54v-4.68a.61.61,0,0,0-.64-.64h-9.45a.61.61,0,0,0-.64.64v24.51a.61.61,0,0,0,.64.64h9.51a.61.61,0,0,0,.64-.64v-6.09h-6.49Z"/><path class="cls-1" d="M52.94,275.6v31.35a6.09,6.09,0,0,1-6.28,6.27H35.51a6.08,6.08,0,0,1-6.22-6.27V275.6h4v30.67a3,3,0,0,0,3.28,3.28H45.7A3,3,0,0,0,49,306.26V275.6Z"/><path class="cls-1" d="M80,275.6h26.43v3.67H95.27v33.94h-4V279.27H80Z"/><path class="cls-1" d="M156.89,313.21h-4l-3.4-9.71H134.42l-3.28,9.71h-4l13-37.62h3.74Zm-21.22-13.33h12.62L142,280.51Z"/><path class="cls-1" d="M205.83,295.59h-17v17.62h-4V275.6h4v16.32h17V275.6h4v37.62h-4Z"/><path class="cls-1" d="M287,313.21H282.9L270.85,275.6h4l10.07,32.14,10-32.14h4Z"/><path class="cls-1" d="M349,313.21h-4l-3.4-9.71H326.53l-3.28,9.71h-4l13-37.62H336Zm-21.22-13.33h12.62l-6.28-19.37Z"/><path class="cls-1" d="M377,275.6h4v33.94h17v3.67H377Z"/><path class="cls-1" d="M426.51,275.6h4v33.94h17v3.67h-21Z"/><path class="cls-1" d="M476,275.6h21.5v3.67H480v12.65h16v3.67H480v13.95h17.66v3.67H476Z"/><path class="cls-1" d="M537.13,294.52l9.68-18.92H551l-11.83,23.27v14.35h-4V298.87L523.33,275.6h4.19Z"/><path class="cls-1" d="M634.69,275.6v31.35a6.09,6.09,0,0,1-6.28,6.27H617.26a6.08,6.08,0,0,1-6.23-6.27V275.6h4v30.67a3,3,0,0,0,3.28,3.28h9.17a3,3,0,0,0,3.28-3.28V275.6Z"/><path class="cls-1" d="M690.53,313.21h-3.85L669,282.77v30.44h-3.85V275.6H669l17.66,30.5V275.6h3.85Z"/><path class="cls-1" d="M725.56,313.21h-4V275.6h4Z"/><path class="cls-1" d="M769.52,313.21h-4.07L753.39,275.6h4l10.07,32.14,10-32.14h4Z"/><path class="cls-1" d="M809.07,275.6h21.5v3.67H813v12.65h16v3.67H813v13.95h17.66v3.67H809.07Z"/><path class="cls-1" d="M860.34,275.6h17.49a6,6,0,0,1,6.23,6.27v9.21a6,6,0,0,1-5.26,6.21l7.75,15.93H882.3l-7.75-15.87H864.3v15.87h-4Zm4,18.13h12.51a3,3,0,0,0,3.28-3.28v-7.91a3,3,0,0,0-3.28-3.28H864.3Z"/><path class="cls-1" d="M914.43,288.42v-6.55a6.06,6.06,0,0,1,6.28-6.27h10.47a6,6,0,0,1,6.23,6.27v4.07l-4,.68v-4.07a3,3,0,0,0-3.28-3.33h-8.49a3,3,0,0,0-3.28,3.33v5.14c0,1.92,1.3,2.82,3.17,3.33,4.7,1.3,5.6,1.58,10.13,2.88,3.28,1,5.89,2.6,5.89,6.16v6.89a6,6,0,0,1-6.23,6.27H920.55a6.09,6.09,0,0,1-6.28-6.27v-4.12l4-.68v4.12a3,3,0,0,0,3.28,3.28h8.83a3,3,0,0,0,3.28-3.28v-5.59c0-1.86-1-2.71-3.17-3.33l-10.07-2.82C917,293.56,914.43,291.86,914.43,288.42Z"/><path class="cls-1" d="M971.47,313.21h-4V275.6h4Z"/><path class="cls-1" d="M999.14,275.6h26.43v3.67h-11.2v33.94h-4V279.27H999.14Z"/><path class="cls-1" d="M1064.21,294.52l9.68-18.92h4.19l-11.83,23.27v14.35h-4V298.87l-11.83-23.27h4.19Z"/><polygon class="cls-1" points="358.01 22.51 308.63 154.94 259.24 22.51 219.99 22.51 283.8 194.09 333.41 194.09 397.23 22.51 358.01 22.51"/><polygon class="cls-1" points="45.47 194.09 181.2 194.09 195.9 154.6 195.9 22.51 118.38 22.51 118.38 59.33 156.66 59.33 156.66 154.6 70.02 154.6 70.02 22.51 30.8 22.51 30.79 154.6 45.47 194.09"/><polygon class="cls-1" points="547.24 154.6 460.56 154.6 460.56 22.51 421.33 22.51 421.33 154.6 436.03 194.09 571.73 194.09 586.48 154.6 586.48 22.51 547.24 22.51 547.24 154.6"/><path class="cls-1" d="M585.72,182.87h7.8V184h-3.31v10H589V184h-3.32Z"/><path class="cls-1" d="M596.49,185.45V194h-1.14v-11.1h1.14l3.34,7.52,3.34-7.52h1.13V194h-1.13v-8.52l-2.82,6.23h-1Z"/><rect class="cls-1" y="236.09" width="1108.33" height="3.84"/></g></g></svg>